<svg width="512" height="512" viewBox="0 0 512 512" fill="none" xmlns="http://www.w3.org/2000/svg">
<rect width="512" height="512" fill="white"/>
<path d="M84.489 340.226V170.774L63.5178 168.695V157H127.985V168.695L107.532 170.774V251.342H206.951V170.774L186.238 168.695V157H250.188V168.695L229.993 170.774V340.226L252 343.604V354H185.203V343.604L206.951 340.226V265.376H107.532V340.226L129.021 343.604V354H63V343.604L84.489 340.226Z" fill="black"/>
<path d="M315.846 340.382V170.662L294.52 168.579V156.866H326.248L337.951 156.085C353.902 155.217 365.779 154.87 373.581 155.043C393.692 155.217 409.123 159.208 419.872 167.017C430.795 174.827 436.257 185.673 436.257 199.556C436.257 211.877 433.049 222.463 426.634 231.313C420.393 239.99 411.03 245.63 398.547 248.233C407.909 248.407 416.405 250.489 424.034 254.48C431.662 258.472 437.73 264.112 442.238 271.4C446.746 278.515 449 286.758 449 296.13C449 314.351 441.978 328.928 427.935 339.861C414.064 350.62 393.692 356 366.819 356C360.404 356 349.134 355.566 333.01 354.698C329.543 354.351 327.115 354.178 325.728 354.178H294V343.766L315.846 340.382ZM338.732 243.287C342.026 243.808 348.181 244.068 357.196 244.068H371.5C384.677 244.068 395.079 240.684 402.708 233.916C410.337 226.975 414.151 216.91 414.151 203.721C414.151 191.92 409.903 182.983 401.408 176.909C393.086 170.835 382.249 167.798 368.899 167.798C364.218 167.798 358.67 167.885 352.255 168.059C346.013 168.232 341.592 168.753 338.992 169.621L338.732 243.287ZM338.732 338.299C341.159 339.514 345.84 340.642 352.775 341.683C359.884 342.551 366.299 342.985 372.02 342.985C387.624 342.985 400.281 339.687 409.99 333.093C419.699 326.325 424.554 315.479 424.554 300.555C424.554 285.978 420.393 275.305 412.07 268.537C403.748 261.769 391.525 258.385 375.401 258.385L356.156 258.125C349.221 258.125 343.413 258.385 338.732 258.906V338.299Z" fill="black"/>
</svg>
